<?xml version="1.0" standalone="no"?><!DOCTYPE svg PUBLIC "-//W3C//DTD SVG 1.1//EN" "http://www.w3.org/Graphics/SVG/1.1/DTD/svg11.dtd"><svg height="211" node-id="1" sillyvg="true" template-height="211" template-width="143" version="1.1" viewBox="0 0 143 211" width="143" xmlns="http://www.w3.org/2000/svg" xmlns:xlink="http://www.w3.org/1999/xlink"><defs node-id="209"></defs><g node-id="659"><path d="M 102.26 132.15 L 92.90 119.34 L 84.76 108.19 L 88.29 105.61 L 92.53 111.41 L 105.80 129.57 C 106.04 129.90 106.10 130.27 105.94 130.39 L 102.94 132.53 C 102.83 132.65 102.50 132.48 102.26 132.15 Z" fill="#1a191a" fill-rule="nonzero" group-id="1" node-id="213" stroke="none" target-height="27.039993" target-width="21.339996" target-x="84.76" target-y="105.61"></path><g node-id="660"><path d="M 92.01 121.85 L 93.78 120.55 L 97.83 126.09 L 96.06 127.39 Z" fill="#fee68d" fill-rule="nonzero" group-id="1,2" node-id="217" stroke="none" target-height="6.831566" target-width="5.8143616" target-x="92.0108" target-y="120.55453"></path></g><path d="M 118.07 102.80 L 123.06 103.58 L 117.16 107.89 L 117.93 102.90 L 118.07 102.80 Z" fill="#1a191a" fill-rule="nonzero" group-id="1" node-id="220" stroke="none" target-height="5.0899963" target-width="5.899994" target-x="117.16" target-y="102.8"></path><path d="M 112.17 107.11 L 117.16 107.89 L 111.24 112.21 L 112.02 107.22 L 112.17 107.11 Z" fill="#1a191a" fill-rule="nonzero" group-id="1" node-id="222" stroke="none" target-height="5.0999985" target-width="5.920006" target-x="111.24" target-y="107.11"></path><path d="M 106.25 111.43 L 111.24 112.21 L 105.33 116.53 L 106.11 111.54 L 106.25 111.43 Z" fill="#1a191a" fill-rule="nonzero" group-id="1" node-id="224" stroke="none" target-height="5.0999985" target-width="5.909996" target-x="105.33" target-y="111.43"></path><path d="M 100.34 115.75 L 105.33 116.53 L 99.42 120.84 L 100.20 115.85 L 100.34 115.75 Z" fill="#1a191a" fill-rule="nonzero" group-id="1" node-id="226" stroke="none" target-height="5.0899963" target-width="5.9100037" target-x="99.42" target-y="115.75"></path><path d="M 100.20 115.85 L 99.42 120.84 L 97.32 117.96 L 100.20 115.85 Z" fill="#393a39" fill-rule="nonzero" group-id="1" node-id="228" stroke="none" target-height="4.989998" target-width="2.8799973" target-x="97.32" target-y="115.85"></path><path d="M 106.11 111.54 L 105.33 116.53 L 100.34 115.75 L 106.11 111.54 Z" fill="#393a39" fill-rule="nonzero" group-id="1" node-id="230" stroke="none" target-height="4.989998" target-width="5.7700043" target-x="100.34" target-y="111.54"></path><path d="M 112.02 107.22 L 111.24 112.21 L 106.25 111.43 L 112.02 107.22 Z" fill="#393a39" fill-rule="nonzero" group-id="1" node-id="232" stroke="none" target-height="4.989998" target-width="5.7699966" target-x="106.25" target-y="107.22"></path><path d="M 117.93 102.90 L 117.16 107.89 L 112.17 107.11 L 117.93 102.90 Z" fill="#393a39" fill-rule="nonzero" group-id="1" node-id="234" stroke="none" target-height="4.989998" target-width="5.760002" target-x="112.17" target-y="102.9"></path><path d="M 119.79 101.55 C 119.95 101.77 120.61 101.55 121.25 101.10 L 123.06 103.58 L 118.06 102.80 Z" fill="#393a39" fill-rule="nonzero" group-id="1" node-id="236" stroke="none" target-height="2.4800034" target-width="5" target-x="118.06" target-y="101.1"></path><path d="M 122.13 99.84 L 123.36 98.94 L 125.50 101.86 C 125.58 101.96 125.61 102.10 125.59 102.22 C 125.57 102.35 125.50 102.47 125.39 102.54 L 123.62 103.83 C 123.56 103.88 123.47 103.90 123.40 103.88 C 123.32 103.87 123.25 103.83 123.20 103.76 L 123.06 103.58 L 121.25 101.10 C 121.90 100.62 122.29 100.06 122.13 99.84 Z" fill="#c6c6c4" fill-rule="nonzero" group-id="1" node-id="238" stroke="none" target-height="4.9555664" target-width="4.3595276" target-x="121.25" target-y="98.94"></path><path d="M 121.25 101.10 C 120.61 101.57 119.95 101.77 119.79 101.55 L 120.96 100.69 Z" fill="#606060" fill-rule="nonzero" group-id="1" node-id="240" stroke="none" target-height="1.0799942" target-width="1.4599991" target-x="119.79" target-y="100.69"></path><path d="M 122.13 99.84 C 122.29 100.06 121.90 100.62 121.25 101.10 L 120.96 100.69 Z" fill="#606060" fill-rule="nonzero" group-id="1" node-id="242" stroke="none" target-height="1.2600021" target-width="1.3300018" target-x="120.96" target-y="99.84"></path><path d="M 86.25 110.23 C 86.16 110.07 86.20 109.86 86.36 109.76 L 89.30 107.61 C 89.44 107.48 89.65 107.48 89.79 107.61 L 95.43 115.33 L 97.32 118.00 L 93.78 120.58 L 90.23 115.72 Z" fill="#1a191a" fill-rule="nonzero" group-id="1" node-id="244" stroke="none" target-height="13.103401" target-width="11.164513" target-x="86.15549" target-y="107.4766"></path><path d="M 87.86 116.16 L 89.63 114.87 L 93.78 120.55 L 92.01 121.85 Z" fill="#974452" fill-rule="nonzero" group-id="1,3" node-id="248" stroke="none" target-height="6.976921" target-width="5.920517" target-x="87.8581" target-y="114.86935"></path><path d="M 112.84 101.98 L 118.75 97.67 L 117.95 102.78 L 112.84 101.98 Z" fill="#1a191a" fill-rule="nonzero" group-id="1" node-id="251" stroke="none" target-height="5.1100006" target-width="5.9100037" target-x="112.84" target-y="97.67"></path><path d="M 118.07 102.80 L 117.93 102.90 L 117.95 102.78 L 118.07 102.80 Z" fill="#c8c2af" fill-rule="nonzero" group-id="1" node-id="253" stroke="none" target-height="0.12000275" target-width="0.13999939" target-x="117.93" target-y="102.78"></path><path d="M 95.11 114.93 L 101.02 110.62 L 100.22 115.73 L 95.11 114.93 Z" fill="#1a191a" fill-rule="nonzero" group-id="1" node-id="255" stroke="none" target-height="5.1100006" target-width="5.909996" target-x="95.11" target-y="110.62"></path><path d="M 106.93 106.30 L 112.84 101.98 L 112.04 107.09 L 112.17 107.11 L 112.02 107.22 L 112.04 107.10 L 106.93 106.30 Z" fill="#1a191a" fill-rule="nonzero" group-id="1" node-id="257" stroke="none" target-height="5.239998" target-width="5.909996" target-x="106.93" target-y="101.98"></path><path d="M 106.25 111.43 L 106.11 111.54 L 106.13 111.41 L 106.25 111.43 Z" fill="#c8c2af" fill-rule="nonzero" group-id="1" node-id="259" stroke="none" target-height="0.12999725" target-width="0.13999939" target-x="106.11" target-y="111.41"></path><path d="M 101.02 110.62 L 106.93 106.30 L 106.13 111.41 L 101.02 110.62 Z" fill="#1a191a" fill-rule="nonzero" group-id="1" node-id="261" stroke="none" target-height="5.1100006" target-width="5.9100037" target-x="101.02" target-y="106.3"></path><path d="M 100.34 115.75 L 100.20 115.85 L 100.22 115.73 L 100.34 115.75 Z" fill="#c8c2af" fill-rule="nonzero" group-id="1" node-id="263" stroke="none" target-height="0.11999512" target-width="0.13999939" target-x="100.2" target-y="115.73"></path><path d="M 100.22 115.73 L 100.20 115.85 L 97.32 117.96 L 95.11 114.93 L 100.22 115.73 Z" fill="#29292a" fill-rule="nonzero" group-id="1" node-id="265" stroke="none" target-height="3.0299988" target-width="5.1100006" target-x="95.11" target-y="114.93"></path><path d="M 101.02 110.62 L 106.13 111.41 L 106.11 111.54 L 100.34 115.75 L 100.22 115.73 L 101.02 110.62 Z" fill="#29292a" fill-rule="nonzero" group-id="1" node-id="267" stroke="none" target-height="5.1299973" target-width="5.909996" target-x="100.22" target-y="110.62"></path><path d="M 106.93 106.30 L 112.04 107.10 L 112.02 107.22 L 106.25 111.43 L 106.13 111.41 L 106.93 106.30 Z" fill="#29292a" fill-rule="nonzero" group-id="1" node-id="269" stroke="none" target-height="5.1299973" target-width="5.9100037" target-x="106.13" target-y="106.3"></path><path d="M 112.84 101.98 L 117.95 102.78 L 117.95 102.78 L 117.95 102.78 L 117.93 102.90 L 112.17 107.11 L 112.04 107.09 L 112.84 101.98 Z" fill="#29292a" fill-rule="nonzero" group-id="1" node-id="271" stroke="none" target-height="5.1299973" target-width="5.909996" target-x="112.04" target-y="101.98"></path><path d="M 118.00 102.78 L 118.00 102.78 L 118.80 97.67 L 120.71 100.29 C 120.07 100.76 119.71 101.29 119.84 101.55 L 118.12 102.80 L 118.00 102.80 Z" fill="#29292a" fill-rule="nonzero" group-id="1" node-id="273" stroke="none" target-height="5.130005" target-width="2.709999" target-x="118" target-y="97.67"></path><path d="M 117.95 102.78 L 117.95 102.78 L 117.95 102.78 L 117.95 102.78 L 117.95 102.78 Z" fill="#c8c2af" fill-rule="nonzero" group-id="1" node-id="275" stroke="none" target-height="0" target-width="0" target-x="117.95" target-y="102.78"></path><path d="M 120.66 100.29 L 118.75 97.67 L 118.61 97.48 C 118.51 97.35 118.54 97.16 118.67 97.06 L 120.45 95.76 C 120.55 95.69 120.68 95.66 120.81 95.68 C 120.93 95.70 121.05 95.77 121.12 95.87 L 123.36 98.94 L 122.13 99.84 C 122.00 99.62 121.31 99.82 120.66 100.29 Z" fill="#7f7a71" fill-rule="nonzero" group-id="1" node-id="277" stroke="none" target-height="4.6344376" target-width="4.849411" target-x="118.51059" target-y="95.65556"></path><path d="M 120.66 100.29 C 121.31 99.82 121.96 99.62 122.13 99.84 L 120.96 100.69 L 119.79 101.55 C 119.62 101.32 120.00 100.76 120.66 100.29 Z" fill="#545454" fill-rule="nonzero" group-id="1" node-id="279" stroke="none" target-height="1.9300003" target-width="2.5099945" target-x="119.62" target-y="99.62"></path><path d="M 106.14 111.35 L 106.11 111.54 L 106.27 111.42 L 106.14 111.35 Z" fill="#29292a" fill-rule="nonzero" group-id="1" node-id="281" stroke="none" target-height="0.19000244" target-width="0.15999603" target-x="106.11" target-y="111.35"></path><path d="M 100.10 115.93 L 100.43 115.68 L 100.23 115.64 L 100.22 115.73 L 100.08 115.71 L 100.10 115.93 Z" fill="#29292a" fill-rule="nonzero" group-id="1" node-id="283" stroke="none" target-height="0.29000092" target-width="0.34999847" target-x="100.08" target-y="115.64"></path><path d="M 34.84 132.15 L 44.20 119.34 L 52.34 108.19 L 48.80 105.61 L 44.56 111.41 L 31.30 129.57 C 31.06 129.90 30.99 130.27 31.16 130.39 L 34.10 132.53 C 34.26 132.65 34.59 132.48 34.84 132.15 Z" fill="#1a191a" fill-rule="nonzero" group-id="1" node-id="285" stroke="none" target-height="27.039993" target-width="21.35" target-x="30.99" target-y="105.61"></path><path d="M 39.27 126.07 L 43.32 120.53 L 45.09 121.83 L 41.04 127.37 Z" fill="#fee68d" fill-rule="nonzero" group-id="1,4" node-id="289" stroke="none" target-height="6.831566" target-width="5.8143616" target-x="39.272278" target-y="120.53431"></path><path d="M 19.02 102.80 L 14.03 103.58 L 19.94 107.89 L 19.16 102.90 L 19.02 102.80 Z" fill="#1a191a" fill-rule="nonzero" group-id="1" node-id="292" stroke="none" target-height="5.0899963" target-width="5.910001" target-x="14.03" target-y="102.8"></path><path d="M 24.93 107.11 L 19.94 107.89 L 25.85 112.21 L 25.07 107.22 L 24.93 107.11 Z" fill="#1a191a" fill-rule="nonzero" group-id="1" node-id="294" stroke="none" target-height="5.0999985" target-width="5.91" target-x="19.94" target-y="107.11"></path><path d="M 30.84 111.43 L 25.85 112.21 L 31.76 116.53 L 30.98 111.54 L 30.84 111.43 Z" fill="#1a191a" fill-rule="nonzero" group-id="1" node-id="296" stroke="none" target-height="5.0999985" target-width="5.91" target-x="25.85" target-y="111.43"></path><path d="M 36.75 115.75 L 31.76 116.53 L 37.67 120.84 L 36.89 115.85 L 36.75 115.75 Z" fill="#1a191a" fill-rule="nonzero" group-id="1" node-id="298" stroke="none" target-height="5.0899963" target-width="5.909998" target-x="31.76" target-y="115.75"></path><path d="M 36.89 115.85 L 37.67 120.84 L 39.78 117.96 L 36.89 115.85 Z" fill="#393a39" fill-rule="nonzero" group-id="1" node-id="300" stroke="none" target-height="4.989998" target-width="2.8899994" target-x="36.89" target-y="115.85"></path><path d="M 30.98 111.54 L 31.76 116.53 L 36.75 115.75 L 30.98 111.54 Z" fill="#393a39" fill-rule="nonzero" group-id="1" node-id="302" stroke="none" target-height="4.989998" target-width="5.7700005" target-x="30.98" target-y="111.54"></path><path d="M 25.07 107.22 L 25.85 112.21 L 30.84 111.43 L 25.07 107.22 Z" fill="#393a39" fill-rule="nonzero" group-id="1" node-id="304" stroke="none" target-height="4.989998" target-width="5.7700005" target-x="25.07" target-y="107.22"></path><path d="M 19.16 102.90 L 19.94 107.89 L 24.93 107.11 L 19.16 102.90 Z" fill="#393a39" fill-rule="nonzero" group-id="1" node-id="306" stroke="none" target-height="4.989998" target-width="5.7700005" target-x="19.16" target-y="102.9"></path><path d="M 17.31 101.55 C 17.14 101.77 16.49 101.55 15.84 101.10 L 14.00 103.58 L 19.00 102.80 Z" fill="#393a39" fill-rule="nonzero" group-id="1" node-id="308" stroke="none" target-height="2.4800034" target-width="5" target-x="14" target-y="101.1"></path><path d="M 15.00 99.84 L 13.76 98.94 L 11.63 101.86 C 11.47 102.08 11.52 102.38 11.73 102.54 L 13.50 103.83 C 13.56 103.88 13.65 103.90 13.73 103.89 C 13.81 103.87 13.88 103.83 13.92 103.76 L 14.06 103.58 L 15.87 101.10 C 15.20 100.62 14.80 100.06 15.00 99.84 Z" fill="#c6c6c4" fill-rule="nonzero" group-id="1" node-id="310" stroke="none" target-height="4.960106" target-width="4.3978786" target-x="11.472121" target-y="98.94"></path><path d="M 15.84 101.10 C 16.49 101.57 17.14 101.77 17.31 101.55 L 16.14 100.69 Z" fill="#606060" fill-rule="nonzero" group-id="1" node-id="312" stroke="none" target-height="1.0799942" target-width="1.4699993" target-x="15.84" target-y="100.69"></path><path d="M 15.00 99.84 C 14.83 100.06 15.23 100.62 15.87 101.10 L 16.17 100.69 Z" fill="#606060" fill-rule="nonzero" group-id="1" node-id="314" stroke="none" target-height="1.2600021" target-width="1.3400002" target-x="14.83" target-y="99.84"></path><path d="M 50.84 110.23 C 50.89 110.15 50.91 110.06 50.89 109.97 C 50.87 109.88 50.81 109.81 50.73 109.76 L 47.79 107.61 C 47.66 107.48 47.44 107.48 47.31 107.61 L 41.67 115.33 L 39.78 118.00 L 43.32 120.58 L 46.87 115.72 Z" fill="#1a191a" fill-rule="nonzero" group-id="1" node-id="316" stroke="none" target-height="13.102226" target-width="11.12804" target-x="39.78" target-y="107.477776"></path><path d="M 43.32 120.54 L 47.47 114.85 L 49.24 116.14 L 45.09 121.83 Z" fill="#974452" fill-rule="nonzero" group-id="1,5" node-id="320" stroke="none" target-height="6.976921" target-width="5.920517" target-x="43.31671" target-y="114.852"></path><path d="M 24.25 101.98 L 18.35 97.67 L 19.14 102.78 L 24.25 101.98 Z" fill="#1a191a" fill-rule="nonzero" group-id="1" node-id="323" stroke="none" target-height="5.1100006" target-width="5.8999996" target-x="18.35" target-y="97.67"></path><path d="M 19.02 102.80 L 19.16 102.90 L 19.14 102.78 L 19.02 102.80 Z" fill="#c8c2af" fill-rule="nonzero" group-id="1" node-id="325" stroke="none" target-height="0.12000275" target-width="0.13999939" target-x="19.02" target-y="102.78"></path><path d="M 41.99 114.93 L 36.08 110.62 L 36.88 115.73 L 41.99 114.93 Z" fill="#1a191a" fill-rule="nonzero" group-id="1" node-id="327" stroke="none" target-height="5.1100006" target-width="5.91" target-x="36.08" target-y="110.62"></path><path d="M 30.17 106.30 L 24.25 101.98 L 25.05 107.09 L 24.93 107.11 L 25.07 107.22 L 25.05 107.10 L 30.17 106.30 Z" fill="#1a191a" fill-rule="nonzero" group-id="1" node-id="329" stroke="none" target-height="5.239998" target-width="5.92" target-x="24.25" target-y="101.98"></path><path d="M 30.84 111.43 L 30.98 111.54 L 30.96 111.41 L 30.84 111.43 Z" fill="#c8c2af" fill-rule="nonzero" group-id="1" node-id="331" stroke="none" target-height="0.12999725" target-width="0.13999939" target-x="30.84" target-y="111.41"></path><path d="M 36.08 110.62 L 30.17 106.30 L 30.96 111.41 L 36.08 110.62 Z" fill="#1a191a" fill-rule="nonzero" group-id="1" node-id="333" stroke="none" target-height="5.1100006" target-width="5.9100018" target-x="30.17" target-y="106.3"></path><path d="M 36.75 115.75 L 36.89 115.85 L 36.88 115.73 L 36.75 115.75 Z" fill="#c8c2af" fill-rule="nonzero" group-id="1" node-id="335" stroke="none" target-height="0.11999512" target-width="0.13999939" target-x="36.75" target-y="115.73"></path><path d="M 36.88 115.73 L 36.89 115.85 L 39.78 117.96 L 41.99 114.93 L 36.88 115.73 Z" fill="#29292a" fill-rule="nonzero" group-id="1" node-id="337" stroke="none" target-height="3.0299988" target-width="5.1100006" target-x="36.88" target-y="114.93"></path><path d="M 36.08 110.62 L 30.96 111.41 L 30.98 111.54 L 36.75 115.75 L 36.88 115.73 L 36.08 110.62 Z" fill="#29292a" fill-rule="nonzero" group-id="1" node-id="339" stroke="none" target-height="5.1299973" target-width="5.920002" target-x="30.96" target-y="110.62"></path><path d="M 30.17 106.30 L 25.05 107.10 L 25.07 107.22 L 30.84 111.43 L 30.96 111.41 L 30.17 106.30 Z" fill="#29292a" fill-rule="nonzero" group-id="1" node-id="341" stroke="none" target-height="5.1299973" target-width="5.91" target-x="25.05" target-y="106.3"></path><path d="M 24.25 101.98 L 19.14 102.78 L 19.14 102.78 L 19.14 102.78 L 19.16 102.90 L 24.93 107.11 L 25.05 107.09 L 24.25 101.98 Z" fill="#29292a" fill-rule="nonzero" group-id="1" node-id="343" stroke="none" target-height="5.1299973" target-width="5.91" target-x="19.14" target-y="101.98"></path><path d="M 19.14 102.78 L 19.14 102.78 L 18.35 97.67 L 16.43 100.29 C 17.08 100.76 17.43 101.29 17.31 101.55 L 19.00 102.80 L 19.12 102.80 Z" fill="#29292a" fill-rule="nonzero" group-id="1" node-id="345" stroke="none" target-height="5.130005" target-width="2.709999" target-x="16.43" target-y="97.67"></path><path d="M 19.14 102.78 L 19.14 102.78 L 19.14 102.78 L 19.14 102.78 L 19.14 102.78 Z" fill="#c8c2af" fill-rule="nonzero" group-id="1" node-id="347" stroke="none" target-height="0" target-width="0" target-x="19.14" target-y="102.78"></path><path d="M 16.43 100.29 L 18.35 97.67 L 18.48 97.48 C 18.58 97.35 18.55 97.16 18.42 97.06 L 16.65 95.76 C 16.43 95.60 16.13 95.65 15.97 95.87 L 13.73 98.94 L 14.97 99.84 C 15.13 99.62 15.79 99.82 16.43 100.29 Z" fill="#7f7a71" fill-rule="nonzero" group-id="1" node-id="349" stroke="none" target-height="4.6857224" target-width="4.849411" target-x="13.73" target-y="95.60428"></path><path d="M 16.43 100.29 C 15.79 99.82 15.13 99.62 14.97 99.84 L 16.14 100.69 L 17.31 101.55 C 17.47 101.32 17.08 100.76 16.43 100.29 Z" fill="#545454" fill-rule="nonzero" group-id="1" node-id="351" stroke="none" target-height="1.9300003" target-width="2.499999" target-x="14.97" target-y="99.62"></path><path d="M 30.95 111.35 L 30.98 111.54 L 30.83 111.42 L 30.95 111.35 Z" fill="#29292a" fill-rule="nonzero" group-id="1" node-id="353" stroke="none" target-height="0.19000244" target-width="0.14999962" target-x="30.83" target-y="111.35"></path><path d="M 37.00 115.93 L 36.66 115.68 L 36.86 115.64 L 36.88 115.73 L 37.02 115.71 L 37.00 115.93 Z" fill="#29292a" fill-rule="nonzero" group-id="1" node-id="355" stroke="none" target-height="0.29000092" target-width="0.3600006" target-x="36.66" target-y="115.64"></path><path d="M 104.88 142.70 C 104.88 142.70 94.00 129.16 94.22 129.10 C 94.44 129.04 105.41 121.00 105.41 121.00 L 117.80 126.36 L 115.14 136.56 Z" fill="#e6413c" fill-rule="nonzero" group-id="1" node-id="357" stroke="none" target-height="21.699997" target-width="23.800003" target-x="94" target-y="121"></path><path d="M 127.49 159.55 C 126.80 159.55 125.36 158.77 123.42 157.49 L 123.42 157.49 L 123.25 157.38 L 122.69 157.00 L 122.18 156.65 C 121.36 156.08 120.48 155.44 119.54 154.75 C 118.78 154.20 117.99 153.60 117.17 152.98 L 116.47 152.44 L 115.89 151.99 L 114.54 150.94 L 112.84 149.59 L 110.71 147.88 L 111.18 147.68 L 108.69 145.68 L 106.81 144.13 L 106.81 144.13 L 105.97 143.44 L 105.11 142.73 L 104.88 142.73 L 104.39 142.32 L 104.39 142.13 L 103.24 141.13 L 103.00 141.13 L 102.46 140.68 L 102.46 140.68 L 101.99 140.28 L 101.99 140.09 L 100.59 138.91 C 100.86 138.76 101.13 138.59 101.40 138.41 L 101.40 138.32 L 101.40 138.32 L 101.97 137.82 L 102.05 137.82 C 102.19 137.71 102.33 137.59 102.46 137.46 L 102.61 137.46 C 103.11 137.01 103.57 136.52 104.00 136.00 L 104.00 135.81 C 104.14 135.65 104.27 135.48 104.40 135.30 C 104.53 135.12 104.73 134.85 104.89 134.61 L 105.06 134.61 L 105.57 133.85 L 105.39 133.85 C 105.50 133.68 105.61 133.51 105.71 133.34 L 106.01 132.83 L 106.19 132.83 C 106.40 132.47 106.60 132.10 106.79 131.72 L 106.79 131.40 C 106.88 131.23 106.96 131.06 107.04 130.90 L 107.28 130.39 L 107.46 130.39 C 107.66 129.98 107.84 129.57 108.02 129.15 C 108.02 129.05 108.11 128.95 108.15 128.85 L 108.15 128.47 L 108.15 127.97 L 108.55 127.97 C 108.79 127.38 109.01 126.80 109.22 126.23 L 109.22 125.73 C 109.39 125.22 109.56 124.73 109.71 124.25 L 109.89 124.25 L 110.01 123.86 C 112.18 124.50 114.44 125.22 116.71 126.01 L 116.91 126.07 L 117.56 126.31 L 118.44 126.63 C 119.50 127.02 120.56 127.42 121.62 127.84 L 121.62 128.07 C 123.41 128.81 125.19 129.61 126.90 130.46 L 128.00 131.02 C 131.54 132.77 134.83 134.97 137.79 137.58 C 138.30 138.05 138.79 138.53 139.25 139.01 C 140.43 140.26 141.44 141.65 142.25 143.16 C 142.68 147.25 132.00 159.62 127.49 159.55 Z" fill="#ef3d41" fill-rule="nonzero" group-id="1" node-id="359" stroke="#1a1a1a" stroke-linecap="butt" stroke-width="1.55" target-height="35.759995" target-width="42.089996" target-x="100.59" target-y="123.86"></path><path d="M 127.93 131.00 L 122.07 141.51 L 114.54 150.94 L 112.84 149.59 L 110.71 147.88 L 111.18 147.68 L 108.69 145.68 L 106.81 144.13 L 106.81 144.13 L 105.97 143.44 L 112.90 135.44 L 117.52 126.37 L 118.40 126.69 C 119.46 127.08 120.52 127.48 121.58 127.90 L 121.58 128.13 C 123.37 128.87 125.15 129.67 126.86 130.52 Z" fill="#2a323a" fill-rule="nonzero" group-id="1" node-id="361" stroke="none" target-height="24.57" target-width="21.96" target-x="105.97" target-y="126.37"></path><path d="M 94.65 117.52 L 88.65 120.31 L 86.17 127.18 C 86.17 127.18 88.11 128.88 91.17 131.51 L 91.17 131.51 C 92.67 132.81 94.45 134.33 96.40 135.99 L 105.66 130.17 L 106.57 130.28 L 111.27 130.87 C 111.27 130.87 116.43 127.33 116.59 125.87 C 116.75 124.41 94.65 117.52 94.65 117.52 Z" fill="#262d32" fill-rule="nonzero" group-id="1" node-id="363" stroke="#1a1a1a" stroke-linecap="butt" stroke-width="1.55" target-height="18.470009" target-width="30.580002" target-x="86.17" target-y="117.52"></path><path d="M 114.54 150.94 C 114.54 150.94 124.07 140.45 127.93 131.00" fill="#262d32" fill-rule="nonzero" group-id="1" node-id="365" stroke="#1a1a1a" stroke-linecap="butt" stroke-width="1.55" target-height="19.940002" target-width="13.389999" target-x="114.54" target-y="131"></path><path d="M 105.97 143.41 L 112.39 134.96 L 117.52 126.29" fill="#262d32" fill-rule="nonzero" group-id="1" node-id="367" stroke="#1a1a1a" stroke-linecap="butt" stroke-width="1.55" target-height="17.120003" target-width="11.549995" target-x="105.97" target-y="126.29"></path><path d="M 102.43 129.39 L 105.19 127.74 L 110.77 128.74 C 112.37 127.54 113.86 126.21 115.22 124.74" fill="none" group-id="1" node-id="369" stroke="#1a1a1a" stroke-linecap="butt" stroke-width="0.78" target-height="4.6500015" target-width="12.790001" target-x="102.43" target-y="124.74"></path><path d="M 117.00 148.12 C 117.00 148.12 126.86 157.75 132.58 156.98" fill="none" group-id="1" node-id="371" stroke="#1a1a1a" stroke-linecap="butt" stroke-width="0.78" target-height="9.630005" target-width="15.580002" target-x="117" target-y="148.12"></path><path d="M 38.12 141.14 C 38.12 141.14 49.00 127.60 48.79 127.54 C 48.58 127.48 37.60 119.47 37.60 119.47 L 25.20 124.83 L 27.87 135.00 Z" fill="#e6413c" fill-rule="nonzero" group-id="1" node-id="373" stroke="none" target-height="21.669998" target-width="23.8" target-x="25.2" target-y="119.47"></path><path d="M 15.52 158.00 C 16.21 158.00 17.64 157.23 19.58 156.00 L 19.58 156.00 L 19.76 155.89 L 20.31 155.51 L 20.82 155.16 C 21.64 154.59 22.53 153.95 23.47 153.26 C 24.22 152.71 25.01 152.11 25.84 151.49 L 26.53 150.95 L 27.12 150.50 L 28.46 149.45 L 30.17 148.00 L 32.30 146.29 L 31.82 146.08 C 32.65 145.42 33.48 144.74 34.32 144.08 L 36.20 142.53 L 36.20 142.53 L 37.04 141.84 L 37.89 141.13 L 38.12 141.13 L 38.62 140.72 L 38.62 140.53 L 39.76 139.53 L 40.00 139.53 L 40.53 139.08 L 40.53 139.08 L 41.00 138.68 L 41.00 138.49 L 42.40 137.31 C 42.12 137.16 41.85 136.99 41.58 136.81 L 41.58 136.72 L 41.58 136.72 L 41.01 136.21 L 40.92 136.21 C 40.78 136.10 40.65 135.97 40.51 135.85 L 40.36 135.85 C 39.88 135.42 39.42 134.95 39.00 134.45 L 39.00 134.26 C 38.87 134.10 38.74 133.93 38.61 133.75 C 38.44 133.53 38.27 133.30 38.11 133.06 L 38.00 133.06 C 37.82 132.81 37.65 132.56 37.49 132.30 L 37.66 132.30 C 37.55 132.13 37.45 131.96 37.35 131.79 C 37.25 131.62 37.14 131.45 37.05 131.28 L 36.87 131.28 C 36.66 130.92 36.46 130.55 36.26 130.17 L 36.26 129.84 L 36.02 129.35 C 35.93 129.18 35.85 129.01 35.77 128.84 L 35.60 128.84 C 35.40 128.43 35.21 128.02 35.03 127.60 C 35.03 127.50 34.94 127.40 34.90 127.29 L 34.90 126.92 L 34.90 126.42 L 34.49 126.42 C 34.26 125.83 34.04 125.25 33.83 124.68 L 33.83 124.17 C 33.65 123.67 33.49 123.17 33.33 122.70 L 33.16 122.70 C 33.16 122.57 33.07 122.44 33.03 122.31 C 30.86 122.95 28.61 123.66 26.33 124.46 L 26.14 124.52 L 25.49 124.76 L 24.61 125.08 C 23.54 125.46 22.48 125.87 21.42 126.29 L 21.42 126.52 C 19.62 127.26 17.85 128.05 16.14 128.91 L 15.04 129.47 C 11.52 131.21 8.24 133.41 5.28 136.00 C 4.77 136.47 4.28 136.95 3.83 137.43 C 2.65 138.68 1.64 140.07 0.83 141.58 C 0.32 145.69 11.00 158.06 15.52 158.00 Z" fill="#ef3d41" fill-rule="nonzero" group-id="1" node-id="375" stroke="#1a1a1a" stroke-linecap="butt" stroke-width="1.55" target-height="35.75" target-width="42.08" target-x="0.32" target-y="122.31"></path><path d="M 15.08 129.44 L 20.94 140.00 L 28.46 149.43 L 30.17 148.00 L 32.30 146.29 L 31.82 146.08 C 32.65 145.42 33.48 144.74 34.32 144.08 L 36.20 142.53 L 36.20 142.53 L 37.04 141.84 L 30.10 133.84 L 25.49 124.77 L 24.61 125.09 C 23.54 125.47 22.48 125.88 21.42 126.30 L 21.42 126.53 C 19.62 127.27 17.85 128.06 16.14 128.92 Z" fill="#2a323a" fill-rule="nonzero" group-id="1" node-id="377" stroke="none" target-height="24.659996" target-width="21.960001" target-x="15.08" target-y="124.77"></path><path d="M 48.35 116.00 L 54.35 118.79 L 56.83 125.66 C 56.83 125.66 54.89 127.36 51.83 129.99 L 51.83 129.99 L 46.59 134.47 L 37.34 128.65 L 36.42 128.76 L 31.72 129.35 C 31.72 129.35 26.57 125.81 26.40 124.35 C 26.23 122.89 48.35 116.00 48.35 116.00 Z" fill="#262d32" fill-rule="nonzero" group-id="1" node-id="379" stroke="#1a1a1a" stroke-linecap="butt" stroke-width="1.55" target-height="18.470001" target-width="30.600002" target-x="26.23" target-y="116"></path><path d="M 28.46 149.38 C 28.46 149.38 18.94 138.89 15.08 129.44" fill="#262d32" fill-rule="nonzero" group-id="1" node-id="381" stroke="#1a1a1a" stroke-linecap="butt" stroke-width="1.55" target-height="19.940002" target-width="13.379999" target-x="15.08" target-y="129.44"></path><path d="M 37.04 141.85 L 30.61 133.40 L 25.48 124.73" fill="#262d32" fill-rule="nonzero" group-id="1" node-id="383" stroke="#1a1a1a" stroke-linecap="butt" stroke-width="1.55" target-height="17.120003" target-width="11.560001" target-x="25.48" target-y="124.73"></path><path d="M 40.57 127.83 L 37.81 126.17 L 32.24 127.17 C 30.64 125.98 29.15 124.64 27.79 123.17" fill="none" group-id="1" node-id="385" stroke="#1a1a1a" stroke-linecap="butt" stroke-width="0.78" target-height="4.6600037" target-width="12.779999" target-x="27.79" target-y="123.17"></path><path d="M 26.06 146.56 C 26.06 146.56 16.19 156.19 10.47 155.42" fill="none" group-id="1" node-id="387" stroke="#1a1a1a" stroke-linecap="butt" stroke-width="0.78" target-height="9.630005" target-width="15.589999" target-x="10.47" target-y="146.56"></path><path d="M 89.86 188.27 C 90.78 185.46 91.37 182.55 91.61 179.61 C 85.46 180.35 79.25 180.52 73.06 180.11 L 73.56 187.85 L 73.85 192.29 L 73.90 192.19 C 74.59 193.87 88.15 194.88 89.86 188.27 Z" fill="#ef3d41" fill-rule="nonzero" group-id="1" node-id="389" stroke="#1a1a1a" stroke-linecap="butt" stroke-width="1.55" target-height="15.270004" target-width="18.550003" target-x="73.06" target-y="179.61"></path><path d="M 88.18 210.22 C 101.38 210.63 101.82 208.11 102.18 204.96 C 102.54 201.81 98.18 199.11 98.18 199.11 L 99.94 185.32 L 101.05 176.64 C 99.05 178.05 95.76 179.02 91.61 179.64 C 91.37 182.58 90.78 185.49 89.86 188.30 C 88.15 194.91 74.59 193.90 73.86 192.22 L 73.81 192.32 L 74.71 206.38 C 74.84 208.33 76.43 209.87 78.39 209.94 Z" fill="#262d32" fill-rule="nonzero" group-id="1" node-id="391" stroke="#1a1a1a" stroke-linecap="butt" stroke-width="1.55" target-height="33.990005" target-width="28.730003" target-x="73.81" target-y="176.64"></path><path d="M 74.35 200.09 C 74.35 200.09 86.26 204.34 98.18 199.09" fill="#262d32" fill-rule="nonzero" group-id="1" node-id="393" stroke="#1a1a1a" stroke-linecap="butt" stroke-width="1.55" target-height="5.25" target-width="23.830002" target-x="74.35" target-y="199.09"></path><path d="M 50.00 188.27 C 48.94 184.40 48.21 180.45 47.83 176.45 C 53.04 177.19 59.99 180.00 66.83 179.63 L 66.34 187.85 L 66.00 192.29 L 66.00 192.19 C 65.26 193.87 51.70 194.88 50.00 188.27 Z" fill="#ef3d41" fill-rule="nonzero" group-id="1" node-id="395" stroke="#1a1a1a" stroke-linecap="butt" stroke-width="1.55" target-height="18.430008" target-width="19" target-x="47.83" target-y="176.45"></path><path d="M 51.67 210.22 C 38.47 210.63 38.03 208.11 37.67 204.96 C 37.31 201.81 41.67 199.11 41.67 199.11 L 39.90 185.32 L 38.20 173.17 C 41.12 174.96 44.40 176.08 47.81 176.45 C 48.20 180.45 48.93 184.40 50.00 188.27 C 51.72 194.88 65.28 193.87 66.00 192.19 L 66.00 192.29 L 65.09 206.35 C 64.96 208.30 63.38 209.84 61.42 209.91 Z" fill="#262d32" fill-rule="nonzero" group-id="1" node-id="397" stroke="#1a1a1a" stroke-linecap="butt" stroke-width="1.55" target-height="37.460007" target-width="28.689999" target-x="37.31" target-y="173.17"></path><path d="M 65.50 200.09 C 65.50 200.09 53.58 204.34 41.66 199.09" fill="#262d32" fill-rule="nonzero" group-id="1" node-id="399" stroke="#1a1a1a" stroke-linecap="butt" stroke-width="1.55" target-height="5.25" target-width="23.84" target-x="41.66" target-y="199.09"></path><path d="M 90.25 13.78 L 91.14 17.78 L 89.40 17.00 L 88.00 12.00 C 80.31 6.10 71.19 2.33 61.57 1.09 C 29.88 -2.63 61.00 3.55 58.66 14.00 C 56.32 24.45 110.73 38.09 110.73 38.09 C 105.45 28.80 98.51 20.56 90.25 13.78 Z" fill="#ef3d41" fill-rule="nonzero" group-id="1" node-id="401" stroke="none" target-height="40.72" target-width="80.850006" target-x="29.88" target-y="-2.63"></path><path d="M 89.40 17.00 C 84.18 14.65 78.53 13.44 72.81 13.44 L 65.72 13.44 C 63.35 13.44 60.99 13.65 58.66 14.06 C 45.59 60.41 67.45 119.06 67.45 119.06 L 66.38 120.75 L 72.81 120.75 C 75.40 120.75 77.99 120.50 80.53 120.01 C 84.57 108.95 87.70 97.58 89.88 86.01 C 93.33 68.05 96.00 41.68 89.40 17.00 Z" fill="#ef424c" fill-rule="nonzero" group-id="1" node-id="403" stroke="none" target-height="107.311386" target-width="50.41" target-x="45.59" target-y="13.438613"></path><path d="M 58.66 14.00 C 55.38 14.60 52.18 15.61 49.14 17.00 C 42.56 41.70 45.21 68.07 48.65 86.05 C 50.83 97.60 53.96 108.96 58.00 120.00 C 60.54 120.49 63.12 120.74 65.71 120.74 L 66.37 120.74 L 67.45 119.00 C 67.45 119.00 45.59 60.39 58.66 14.00 Z" fill="#ef3d41" fill-rule="nonzero" group-id="1" node-id="405" stroke="none" target-height="106.74" target-width="24.889996" target-x="42.56" target-y="14"></path><path d="M 47.39 17.81 C 44.65 29.02 43.37 40.54 43.59 52.08 C 43.78 63.59 44.99 75.06 47.20 86.35 C 49.35 97.66 52.39 108.78 56.28 119.61 C 37.60 115.13 23.57 97.61 23.57 76.92 L 23.57 57.23 C 23.47 40.66 32.67 25.43 47.39 17.81 Z" fill="#ef3d41" fill-rule="nonzero" group-id="1" node-id="407" stroke="none" target-height="101.8" target-width="32.80974" target-x="23.470263" target-y="17.81"></path><path d="M 58.66 14.00 C 55.38 14.60 52.18 15.61 49.14 17.00 C 42.56 41.70 45.21 68.07 48.65 86.05 C 50.83 97.60 53.96 108.96 58.00 120.00 C 60.54 120.49 63.12 120.74 65.71 120.74 L 66.37 120.74 L 67.45 119.00 C 67.45 119.00 45.59 60.39 58.66 14.00 Z" fill="#b02e3f" fill-rule="nonzero" group-id="1" node-id="409" stroke="none" target-height="106.74" target-width="24.889996" target-x="42.56" target-y="14"></path><path d="M 43.59 52.08 C 43.37 40.54 44.65 29.02 47.39 17.81 C 32.67 25.43 23.47 40.66 23.57 57.23 L 23.57 76.92 C 23.57 97.65 37.57 115.13 56.28 119.61 C 52.39 108.78 49.35 97.66 47.20 86.35 C 44.99 75.06 43.78 63.59 43.59 52.08 Z" fill="#b02e3f" fill-rule="nonzero" group-id="1" node-id="411" stroke="none" target-height="101.8" target-width="32.80974" target-x="23.470263" target-y="17.81"></path><path d="M 91.14 17.81 C 93.89 29.02 95.17 40.54 94.94 52.08 C 94.76 63.59 93.55 75.06 91.34 86.35 C 89.19 97.66 86.15 108.78 82.25 119.61 C 100.93 115.13 114.97 97.61 114.97 76.92 L 114.97 57.23 C 115.07 40.66 105.86 25.43 91.14 17.81 Z" fill="#ef424c" fill-rule="nonzero" group-id="1" node-id="413" stroke="none" target-height="101.8" target-width="32.815506" target-x="82.25" target-y="17.81"></path><path d="M 94.94 52.08 C 95.17 40.54 93.89 29.02 91.14 17.81 C 90.57 17.52 89.99 17.24 89.40 16.98 C 96.00 41.68 93.33 68.05 89.88 86.00 C 87.70 97.57 84.57 108.94 80.53 120.00 C 81.11 119.88 81.68 119.76 82.25 119.62 C 86.15 108.79 89.19 97.67 91.34 86.36 C 93.55 75.06 94.76 63.59 94.94 52.08 Z" fill="#1a1a1a" fill-rule="nonzero" group-id="1" node-id="415" stroke="none" target-height="103.020004" target-width="15.470001" target-x="80.53" target-y="16.98"></path><path d="M 87.64 95.70 C 88.10 95.92 88.63 95.92 89.09 95.70 C 92.58 93.93 107.60 85.76 107.86 76.19 C 108.14 71.50 103.94 60.02 94.08 51.46 C 94.08 51.46 77.00 58.72 74.26 81.89 C 74.26 81.86 74.33 89.58 87.64 95.70 Z" fill="#1c1b1c" fill-rule="nonzero" group-id="1" node-id="417" stroke="none" target-height="44.45932" target-width="33.879997" target-x="74.26" target-y="51.46"></path><path d="M 95.00 77.07 L 90.30 78.83 L 86.10 80.37 C 86.10 80.37 92.29 88.38 95.00 77.07 Z" fill="#ffffff" fill-rule="nonzero" group-id="1" node-id="419" stroke="none" target-height="11.309998" target-width="8.900002" target-x="86.1" target-y="77.07"></path><path d="M 43.59 52.08 C 43.37 40.54 44.65 29.02 47.39 17.81 C 47.97 17.52 48.55 17.24 49.14 16.98 C 42.56 41.68 45.21 68.05 48.65 86.03 C 50.83 97.59 53.96 108.95 58.00 120.00 C 57.42 119.88 56.84 119.76 56.27 119.62 C 52.38 108.78 49.35 97.66 47.20 86.35 C 44.99 75.06 43.78 63.59 43.59 52.08 Z" fill="#1a1a1a" fill-rule="nonzero" group-id="1" node-id="421" stroke="none" target-height="103.020004" target-width="15.439999" target-x="42.56" target-y="16.98"></path><path d="M 50.90 95.70 C 50.44 95.92 49.90 95.92 49.44 95.70 C 46.00 93.90 30.93 85.73 30.67 76.16 C 30.39 71.47 34.59 60.00 44.45 51.43 C 44.45 51.43 61.53 58.69 64.28 81.86 C 64.28 81.86 64.21 89.58 50.90 95.70 Z" fill="#1c1b1c" fill-rule="nonzero" group-id="1" node-id="423" stroke="none" target-height="44.489616" target-width="33.89" target-x="30.39" target-y="51.43"></path><path d="M 42.70 77.07 L 47.40 78.83 L 51.55 80.37 C 51.55 80.37 45.36 88.38 42.70 77.07 Z" fill="#ffffff" fill-rule="nonzero" group-id="1" node-id="425" stroke="none" target-height="11.309998" target-width="8.849998" target-x="42.7" target-y="77.07"></path><path d="M 51.84 127.53 C 53.03 124.69 54.66 122.05 56.67 119.72 L 56.67 119.72 C 53.62 119.29 50.64 118.41 47.85 117.11 C 44.45 123.89 41.46 130.86 38.91 138.00 C 38.78 138.39 38.65 138.77 38.51 139.15 L 38.13 140.29 C 36.22 145.75 34.88 151.39 34.13 157.13 C 34.13 157.25 34.13 157.38 34.13 157.50 C 34.13 157.62 34.13 157.89 34.13 158.08 L 34.13 158.44 C 34.13 158.63 34.13 158.82 34.13 159.01 C 34.13 159.20 34.13 159.25 34.13 159.37 C 33.85 164.45 34.62 168.83 37.13 171.67 C 37.30 171.86 37.47 172.04 37.65 172.22 C 37.83 172.40 38.03 172.57 38.23 172.73 C 39.03 173.38 39.93 173.90 40.90 174.26 C 43.24 175.13 45.63 175.87 48.06 176.47 C 47.15 168.14 46.06 152.73 48.66 139.17 C 48.73 139.17 48.77 139.17 48.78 139.09 C 51.08 139.63 53.00 139.74 54.08 139.09 L 57.59 129.27 Z" fill="#262d32" fill-rule="nonzero" group-id="1" node-id="427" stroke="#1a1a1a" stroke-linecap="butt" stroke-width="1.55" target-height="59.36" target-width="23.740002" target-x="33.85" target-y="117.11"></path><path d="M 103.50 162.94 L 103.35 161.70 C 103.35 161.51 103.35 161.31 103.27 161.11 C 103.27 160.71 103.16 160.30 103.10 159.88 C 102.97 158.99 102.82 158.07 102.66 157.12 L 102.44 155.85 C 102.38 155.54 102.33 155.23 102.27 154.92 L 102.15 154.28 C 101.15 148.88 99.92 142.78 99.01 135.89 C 98.94 135.40 98.88 134.94 98.80 134.48 C 98.72 134.02 98.66 133.63 98.59 133.22 L 98.44 132.43 C 98.38 132.16 98.33 131.90 98.27 131.65 C 97.57 127.83 96.07 124.19 93.85 121.00 L 93.50 120.55 C 93.43 120.48 93.37 120.40 93.31 120.33 L 93.00 120.00 C 92.94 119.92 92.87 119.85 92.80 119.78 C 92.69 119.66 92.59 119.55 92.48 119.45 C 92.37 119.35 92.34 119.31 92.27 119.24 C 91.34 118.26 90.16 117.54 88.87 117.14 C 88.87 117.14 86.43 117.81 82.62 118.54 L 81.43 121.00 L 81.43 121.00 L 81.43 121.00 L 81.43 121.00 C 81.43 121.00 81.43 121.11 81.50 121.20 L 81.50 121.20 C 81.77 121.98 82.56 124.34 83.60 127.78 L 83.60 127.78 C 81.73 128.39 79.82 128.85 77.88 129.18 L 81.40 139.00 C 82.48 139.64 84.40 139.53 86.69 139.00 L 86.69 139.07 L 86.93 140.01 L 86.93 140.01 L 87.17 141.01 L 87.17 141.09 C 87.25 141.41 87.32 141.73 87.40 142.09 L 87.40 142.21 C 87.47 142.52 87.55 142.84 87.62 143.15 L 87.62 143.31 L 87.83 144.22 L 87.83 144.43 C 87.90 144.72 87.96 145.02 88.03 145.31 C 88.03 145.39 88.03 145.47 88.03 145.55 C 88.10 145.84 88.16 146.13 88.22 146.42 L 88.28 146.68 L 88.46 147.53 L 88.52 147.82 C 88.58 148.10 88.63 148.37 88.69 148.65 C 88.69 148.76 88.69 148.87 88.76 148.98 C 88.83 149.09 88.86 149.51 88.92 149.78 C 88.92 149.90 88.92 150.02 88.99 150.13 L 89.14 150.93 C 89.14 151.05 89.19 151.17 89.21 151.30 L 89.36 152.07 C 89.36 152.20 89.41 152.34 89.43 152.47 C 89.45 152.60 89.52 152.97 89.57 153.23 C 89.62 153.49 89.57 153.50 89.64 153.64 C 89.71 153.78 89.73 154.14 89.77 154.39 C 89.81 154.64 89.77 154.68 89.84 154.82 L 89.96 155.55 C 89.96 155.70 89.96 155.85 90.04 156.01 C 90.12 156.17 90.11 156.48 90.15 156.72 C 90.19 156.96 90.15 157.03 90.22 157.19 C 90.29 157.35 90.29 157.66 90.33 157.89 C 90.37 158.12 90.38 158.22 90.40 158.38 C 90.42 158.54 90.47 158.84 90.50 159.07 C 90.53 159.30 90.55 159.40 90.57 159.57 L 90.66 160.24 L 90.72 160.75 L 90.81 161.42 L 90.87 161.94 C 90.87 162.16 90.87 162.38 90.95 162.60 L 91.01 163.12 L 91.07 163.77 L 91.13 164.30 L 91.19 164.95 C 91.19 165.12 91.19 165.30 91.19 165.48 C 91.19 165.66 91.19 165.90 91.19 166.12 C 91.19 166.34 91.19 166.47 91.19 166.65 C 91.19 166.83 91.19 167.08 91.19 167.29 C 91.19 167.50 91.19 167.64 91.19 167.82 C 91.19 168.00 91.19 168.24 91.19 168.45 L 91.19 168.98 L 91.19 169.62 L 91.19 170.13 C 91.19 170.34 91.19 170.55 91.19 170.77 C 91.19 170.99 91.19 171.11 91.19 171.27 C 91.19 171.43 91.19 171.71 91.19 171.92 C 91.19 172.13 91.19 172.25 91.19 172.41 L 91.19 173.09 C 91.19 173.24 91.19 173.39 91.19 173.53 C 91.19 173.67 91.19 174.03 91.19 174.28 L 91.19 174.65 C 91.19 175.02 91.19 175.39 91.19 175.75 C 91.19 177.04 91.07 178.30 90.96 179.53 C 95.11 178.94 98.43 177.97 100.40 176.53 C 101.28 175.98 101.95 175.15 102.29 174.17 C 102.72 172.68 102.99 171.14 103.07 169.59 C 103.07 169.16 103.09 168.72 103.13 168.27 C 103.36 166.50 103.48 164.72 103.50 162.94 Z" fill="#262d32" fill-rule="nonzero" group-id="1" node-id="429" stroke="#1a1a1a" stroke-linecap="butt" stroke-width="1.55" target-height="62.39" target-width="25.620003" target-x="77.88" target-y="117.14"></path><path d="M 91.86 174.73 L 91.86 174.36 C 91.86 174.11 91.86 173.87 91.86 173.61 C 91.86 173.35 91.86 173.32 91.86 173.17 L 91.86 172.49 C 91.86 172.33 91.86 172.17 91.86 172.00 C 91.86 171.83 91.86 171.57 91.86 171.35 C 91.86 171.13 91.86 171.02 91.86 170.85 C 91.86 170.68 91.86 170.42 91.86 170.21 L 91.86 169.70 L 91.86 169.06 L 91.86 168.53 C 91.86 168.32 91.86 168.11 91.86 167.90 C 91.86 167.69 91.86 167.54 91.86 167.37 C 91.86 167.20 91.86 166.94 91.86 166.73 C 91.86 166.52 91.86 166.38 91.86 166.20 C 91.86 166.02 91.86 165.77 91.86 165.56 C 91.86 165.35 91.86 165.20 91.86 165.03 L 91.80 164.38 L 91.74 163.85 L 91.68 163.20 L 91.62 162.68 C 91.62 162.46 91.62 162.24 91.54 162.02 L 91.48 161.50 L 91.39 160.83 L 91.33 160.32 L 91.24 159.65 C 91.24 159.48 91.24 159.31 91.17 159.15 C 91.10 158.99 91.10 158.69 91.07 158.46 C 91.04 158.23 91.07 158.14 91.00 157.97 C 90.93 157.80 90.93 157.50 90.89 157.27 C 90.85 157.04 90.89 156.96 90.82 156.80 C 90.75 156.64 90.75 156.32 90.71 156.09 C 90.67 155.86 90.71 155.78 90.63 155.63 L 90.51 154.90 C 90.51 154.76 90.51 154.61 90.44 154.47 C 90.37 154.33 90.35 153.97 90.31 153.72 C 90.27 153.47 90.31 153.45 90.24 153.31 C 90.17 153.17 90.15 152.80 90.10 152.55 C 90.05 152.30 90.10 152.28 90.03 152.15 L 89.88 151.38 C 89.88 151.25 89.88 151.13 89.81 151.01 L 89.66 150.21 C 89.66 150.10 89.66 149.98 89.59 149.86 C 89.53 149.59 89.48 149.32 89.43 149.06 C 89.38 148.80 89.43 148.84 89.36 148.73 C 89.30 148.45 89.25 148.18 89.19 147.90 L 89.13 147.61 L 88.95 146.76 L 88.89 146.50 C 88.83 146.21 88.77 145.92 88.70 145.63 C 88.70 145.55 88.70 145.47 88.70 145.39 C 88.63 145.10 88.57 144.80 88.50 144.51 L 88.50 144.30 L 88.29 143.39 L 88.29 143.23 C 88.22 142.92 88.14 142.60 88.07 142.29 L 88.07 142.17 C 87.99 141.84 87.92 141.52 87.84 141.17 L 87.84 141.09 L 87.60 140.09 L 87.60 140.09 C 87.51 139.75 87.43 139.41 87.34 139.09 C 85.04 139.63 83.13 139.74 82.05 139.09 L 78.53 129.27 C 80.47 128.94 82.38 128.48 84.25 127.87 L 84.25 127.87 C 83.25 124.43 82.42 122.07 82.15 121.29 L 82.15 121.29 C 82.15 121.20 82.09 121.13 82.08 121.09 L 82.08 121.09 L 82.08 121.09 L 82.08 121.09 L 83.28 118.62 C 78.75 119.50 74.16 120.07 69.55 120.33 L 68.10 120.39 C 67.63 120.39 67.16 120.39 66.69 120.39 C 63.56 120.45 60.42 120.25 57.32 119.80 L 57.32 119.80 C 45.32 133.42 47.05 163.56 48.46 176.53 C 56.74 178.53 65.20 179.76 73.71 180.19 C 79.90 180.60 86.11 180.43 92.26 179.69 C 92.37 178.46 92.45 177.20 92.49 175.91 C 91.85 175.47 91.86 175.10 91.86 174.73 Z" fill="#ef4851" fill-rule="nonzero" group-id="1" node-id="431" stroke="#1a1a1a" stroke-linecap="butt" stroke-width="1.55" target-height="61.982018" target-width="47.17" target-x="45.32" target-y="118.62"></path><path d="M 101.36 150.00 C 92.65 154.35 80.64 155.14 69.27 154.50 L 69.27 166.00 C 80.75 166.10 92.19 164.76 103.33 162.00 Z" fill="#e88562" fill-rule="nonzero" group-id="1" node-id="433" stroke="#1a1a1a" stroke-linecap="butt" stroke-width="0.78" target-height="16.101715" target-width="34.060005" target-x="69.27" target-y="150"></path><path d="M 37.15 150.00 L 35.15 162.00 C 46.29 164.76 57.73 166.10 69.21 166.00 L 69.21 154.51 C 57.87 155.15 45.86 154.36 37.15 150.00 Z" fill="#e88562" fill-rule="nonzero" group-id="1" node-id="435" stroke="#1a1a1a" stroke-linecap="butt" stroke-width="0.78" target-height="16.101715" target-width="34.059998" target-x="35.15" target-y="150"></path><path d="M 59.31 152.44 L 57.70 152.25 C 57.70 152.25 53.18 162.39 59.56 167.66 L 61.11 167.00 Z" fill="#ffffff" fill-rule="nonzero" group-id="1" node-id="437" stroke="#1a1a1a" stroke-linecap="butt" stroke-width="0.78" target-height="15.410004" target-width="7.9300003" target-x="53.18" target-y="152.25"></path><path d="M 79.00 153.17 L 80.62 153.00 C 80.62 153.00 85.13 162.48 78.75 167.41 L 77.21 166.79 Z" fill="#ffffff" fill-rule="nonzero" group-id="1" node-id="439" stroke="#1a1a1a" stroke-linecap="butt" stroke-width="0.78" target-height="14.410004" target-width="7.919998" target-x="77.21" target-y="153"></path><path d="M 80.63 159.31 C 80.63 165.60 75.53 170.70 69.24 170.70 C 62.95 170.70 57.85 165.60 57.85 159.31 C 57.85 153.02 62.95 147.92 69.24 147.92 C 75.53 147.92 80.63 153.02 80.63 159.31 Z" fill="#ef3d41" fill-rule="nonzero" group-id="1" node-id="441" stroke="#1a1a1a" stroke-linecap="butt" stroke-width="1.55" target-height="22.779999" target-width="22.779999" target-x="57.85" target-y="147.92"></path><path d="M 59.94 159.31 C 59.94 161.78 60.92 164.15 62.66 165.89 C 64.40 167.64 66.77 168.62 69.24 168.62 L 69.24 150.00 C 66.77 150.00 64.40 150.98 62.66 152.73 C 60.92 154.47 59.94 156.84 59.94 159.31 Z" fill="#1c1b1c" fill-rule="nonzero" group-id="1" node-id="443" stroke="none" target-height="18.619995" target-width="9.30265" target-x="59.937347" target-y="150"></path><path d="M 78.55 159.31 C 78.55 156.84 77.57 154.47 75.82 152.73 C 74.08 150.99 71.71 150.01 69.24 150.01 L 69.24 168.62 C 74.38 168.62 78.55 164.45 78.55 159.31 Z" fill="#2c2c2c" fill-rule="nonzero" group-id="1" node-id="445" stroke="none" target-height="18.612656" target-width="9.310005" target-x="69.24" target-y="150.00734"></path><path d="M 74.92 158.27 L 70.75 159.54 C 70.75 159.54 73.37 163.40 74.92 158.27 Z" fill="#ffffff" fill-rule="nonzero" group-id="1" node-id="447" stroke="none" target-height="5.1299896" target-width="4.169998" target-x="70.75" target-y="158.27"></path><path d="M 62.50 158.27 L 66.67 159.54 C 66.67 159.54 64.05 163.40 62.50 158.27 Z" fill="#ffffff" fill-rule="nonzero" group-id="1" node-id="449" stroke="none" target-height="5.1299896" target-width="4.169998" target-x="62.5" target-y="158.27"></path><path d="M 95.21 150.68 L 103.22 149.48 L 103.34 149.57 L 105.33 162.77 L 105.20 163.27 L 104.75 163.54 L 97.83 164.58 L 97.33 164.46 L 97.06 164.01 L 95.08 150.86 L 95.06 150.71 L 95.21 150.68 Z" fill="#ffcc7d" fill-rule="nonzero" group-id="1,6" node-id="453" stroke="#1a1a1a" stroke-linecap="butt" stroke-width="0.78" target-height="15.107376" target-width="10.263481" target-x="95.06243" target-y="149.47536"></path><path d="M 96.57 149.78 L 101.64 149.02 L 101.73 149.09 L 103.24 159.15 L 103.16 159.47 L 102.88 159.64 L 98.51 160.30 L 98.19 160.22 L 98.02 159.94 L 96.51 149.86 L 96.57 149.78 Z" fill="#dd9534" fill-rule="nonzero" group-id="1,7" node-id="458" stroke="#1a1a1a" stroke-linecap="butt" stroke-width="0.78" target-height="11.279816" target-width="6.734665" target-x="96.50899" target-y="149.01888"></path><path d="M 101.24 157.83 L 101.09 158.32 L 100.55 158.60 L 99.95 158.49 L 99.66 158.07 L 99.81 157.59 L 100.36 157.30 L 100.96 157.41 L 101.24 157.83 Z" fill="#1a1a1a" fill-rule="nonzero" group-id="1,8" node-id="463" stroke="none" target-height="1.3053589" target-width="1.5822601" target-x="99.662155" target-y="157.29912"></path><path d="M 50.57 167.92 L 41.45 166.55 L 40.86 166.19 L 40.69 165.52 L 42.84 151.22 L 43.01 151.10 L 53.63 152.69 L 53.75 152.86 L 51.61 167.15 L 51.25 167.74 L 50.59 167.91 Z" fill="#ffcc7d" fill-rule="nonzero" group-id="1,9" node-id="468" stroke="#1a1a1a" stroke-linecap="butt" stroke-width="1.04" target-height="16.820038" target-width="13.064899" target-x="40.68991" target-y="151.09587"></path><path d="M 49.84 163.17 L 43.54 162.22 L 43.13 161.97 L 43.02 161.51 L 44.65 150.64 L 44.77 150.54 L 52.08 151.64 L 52.17 151.77 L 50.54 162.64 L 50.30 163.05 L 49.84 163.17 Z" fill="#dd9534" fill-rule="nonzero" group-id="1,10" node-id="473" stroke="#1a1a1a" stroke-linecap="butt" stroke-width="1.04" target-height="12.621597" target-width="9.159119" target-x="43.015007" target-y="150.54367"></path><path d="M 47.05 160.29 L 47.59 160.57 L 47.74 161.06 L 47.45 161.48 L 46.85 161.59 L 46.31 161.30 L 46.16 160.82 L 46.44 160.40 L 47.05 160.29 Z" fill="#1a1a1a" fill-rule="nonzero" group-id="1,11" node-id="478" stroke="none" target-height="1.3053589" target-width="1.5822449" target-x="46.156616" target-y="160.28596"></path><path d="M 40.23 164.68 L 33.30 163.64 L 32.86 163.37 L 32.73 162.87 L 34.71 149.67 L 34.84 149.57 L 42.85 150.78 L 42.94 150.90 L 40.97 164.05 L 40.70 164.50 L 40.19 164.63 Z" fill="#ffcc7d" fill-rule="nonzero" group-id="1,12" node-id="483" stroke="#1a1a1a" stroke-linecap="butt" stroke-width="0.78" target-height="15.107376" target-width="10.210224" target-x="32.73208" target-y="149.57332"></path><path d="M 39.60 160.29 L 35.23 159.63 L 34.94 159.46 L 34.86 159.14 L 36.38 149.08 L 36.47 149.01 L 41.54 149.77 L 41.61 149.86 L 40.10 159.93 L 39.93 160.21 L 39.61 160.29 Z" fill="#dd9534" fill-rule="nonzero" group-id="1,13" node-id="488" stroke="#1a1a1a" stroke-linecap="butt" stroke-width="0.78" target-height="11.281296" target-width="6.7430763" target-x="34.86375" target-y="149.01003"></path><path d="M 37.76 157.31 L 38.30 157.60 L 38.45 158.08 L 38.16 158.50 L 37.56 158.62 L 37.02 158.33 L 36.87 157.85 L 37.16 157.43 L 37.76 157.31 Z" fill="#1a1a1a" fill-rule="nonzero" group-id="1,14" node-id="493" stroke="none" target-height="1.3053589" target-width="1.5822449" target-x="36.86998" target-y="157.31192"></path><path d="M 89.81 153.31 C 89.81 153.45 89.81 153.58 89.88 153.72 C 89.86 153.58 89.83 153.45 89.81 153.31 Z" fill="none" group-id="1" node-id="496" stroke="none" target-height="0.41000366" target-width="0.069999695" target-x="89.81" target-y="153.31"></path><path d="M 90.00 154.47 C 90.00 154.61 90.00 154.76 90.07 154.90 C 90.06 154.76 90.00 154.61 90.00 154.47 Z" fill="none" group-id="1" node-id="498" stroke="none" target-height="0.42999268" target-width="0.069999695" target-x="90" target-y="154.47"></path><path d="M 89.60 152.15 C 89.60 152.28 89.65 152.42 89.67 152.55 C 89.65 152.42 89.62 152.28 89.60 152.15 Z" fill="none" group-id="1" node-id="500" stroke="none" target-height="0.40000916" target-width="0.069999695" target-x="89.6" target-y="152.15"></path><path d="M 90.20 155.63 C 90.20 155.78 90.20 155.93 90.28 156.09 C 90.25 155.93 90.23 155.78 90.20 155.63 Z" fill="none" group-id="1" node-id="502" stroke="none" target-height="0.45999146" target-width="0.08000183" target-x="90.2" target-y="155.63"></path><path d="M 89.38 151.00 C 89.38 151.12 89.43 151.24 89.45 151.37 C 89.43 151.25 89.40 151.13 89.38 151.00 Z" fill="none" group-id="1" node-id="504" stroke="none" target-height="0.36999512" target-width="0.069999695" target-x="89.38" target-y="151"></path><path d="M 90.39 156.80 C 90.39 156.96 90.39 157.11 90.46 157.27 C 90.44 157.11 90.42 157.00 90.39 156.80 Z" fill="none" group-id="1" node-id="506" stroke="none" target-height="0.47000122" target-width="0.069999695" target-x="90.39" target-y="156.8"></path><path d="M 91.05 161.50 L 91.11 162.02 Z" fill="none" group-id="1" node-id="508" stroke="none" target-height="0.5200043" target-width="0.05999756" target-x="91.05" target-y="161.5"></path><path d="M 91.19 162.68 L 91.25 163.20 Z" fill="none" group-id="1" node-id="510" stroke="none" target-height="0.5200043" target-width="0.05999756" target-x="91.19" target-y="162.68"></path><path d="M 90.90 160.32 L 90.96 160.83 Z" fill="none" group-id="1" node-id="512" stroke="none" target-height="0.5099945" target-width="0.05999756" target-x="90.9" target-y="160.32"></path><path d="M 89.16 149.86 C 89.16 149.98 89.16 150.10 89.23 150.21 C 89.20 150.10 89.18 150.00 89.16 149.86 Z" fill="none" group-id="1" node-id="514" stroke="none" target-height="0.3500061" target-width="0.069999695" target-x="89.16" target-y="149.86"></path><path d="M 90.74 159.15 C 90.74 159.31 90.79 159.48 90.81 159.65 C 90.79 159.48 90.76 159.31 90.74 159.15 Z" fill="none" group-id="1" node-id="516" stroke="none" target-height="0.5" target-width="0.069999695" target-x="90.74" target-y="159.15"></path><path d="M 90.57 158.00 C 90.57 158.17 90.62 158.33 90.64 158.49 C 90.62 158.30 90.59 158.14 90.57 158.00 Z" fill="none" group-id="1" node-id="518" stroke="none" target-height="0.4900055" target-width="0.069999695" target-x="90.57" target-y="158"></path><path d="M 88.93 148.73 C 88.93 148.84 88.93 148.95 89.00 149.06 C 89.00 149.00 89.00 148.84 88.93 148.73 Z" fill="none" group-id="1" node-id="520" stroke="none" target-height="0.33000183" target-width="0.069999695" target-x="88.93" target-y="148.73"></path><path d="M 83.63 127.86 L 83.63 127.85 L 83.63 127.86 L 83.63 127.86 Z" fill="none" group-id="1" node-id="522" stroke="none" target-height="0.010002136" target-width="0" target-x="83.63" target-y="127.85"></path><path d="M 81.52 121.24 L 81.52 121.24 Z" fill="none" group-id="1" node-id="524" stroke="none" target-height="0" target-width="0" target-x="81.52" target-y="121.24"></path><path d="M 87.00 140.08 L 87.00 140.08 Z" fill="none" group-id="1" node-id="526" stroke="none" target-height="0" target-width="0" target-x="87" target-y="140.08"></path><path d="M 81.43 121.00 L 81.43 121.00 Z" fill="none" group-id="1" node-id="528" stroke="none" target-height="0" target-width="0" target-x="81.43" target-y="121"></path><path d="M 87.23 141.12 L 87.23 141.20 Z" fill="none" group-id="1" node-id="530" stroke="none" target-height="0.08000183" target-width="0" target-x="87.23" target-y="141.12"></path><path d="M 81.44 121.00 L 81.44 121.00 Z" fill="none" group-id="1" node-id="532" stroke="none" target-height="0" target-width="0" target-x="81.44" target-y="121"></path><path d="M 91.31 163.85 L 91.37 164.38 Z" fill="none" group-id="1" node-id="534" stroke="none" target-height="0.5299988" target-width="0.060005188" target-x="91.31" target-y="163.85"></path><path d="M 88.22 145.39 C 88.22 145.47 88.22 145.55 88.22 145.63 C 88.22 145.55 88.22 145.47 88.22 145.39 Z" fill="none" group-id="1" node-id="536" stroke="none" target-height="0.2400055" target-width="0.0048065186" target-x="88.22" target-y="145.39"></path><path d="M 88.70 147.61 L 88.76 147.90 Z" fill="none" group-id="1" node-id="538" stroke="none" target-height="0.2899933" target-width="0.060005188" target-x="88.7" target-y="147.61"></path><path d="M 88.00 144.30 L 88.00 144.51 Z" fill="none" group-id="1" node-id="540" stroke="none" target-height="0.20999146" target-width="0" target-x="88" target-y="144.3"></path><path d="M 87.48 142.17 L 87.48 142.29 Z" fill="none" group-id="1" node-id="542" stroke="none" target-height="0.11999512" target-width="0" target-x="87.48" target-y="142.17"></path><path d="M 87.73 143.23 L 87.73 143.39 Z" fill="none" group-id="1" node-id="544" stroke="none" target-height="0.16000366" target-width="0" target-x="87.73" target-y="143.23"></path><path d="M 88.46 146.50 L 88.52 146.76 Z" fill="none" group-id="1" node-id="546" stroke="none" target-height="0.2599945" target-width="0.05999756" target-x="88.46" target-y="146.5"></path><path d="M 91.76 169.70 L 91.76 170.21 Z" fill="none" group-id="1" node-id="548" stroke="none" target-height="0.51000977" target-width="0" target-x="91.76" target-y="169.7"></path><path d="M 91.81 170.85 C 91.81 171.02 91.81 171.19 91.81 171.35 C 91.83 171.19 91.82 171.00 91.81 170.85 Z" fill="none" group-id="1" node-id="550" stroke="none" target-height="0.5" target-width="0.020004272" target-x="91.81" target-y="170.85"></path><path d="M 91.70 168.53 L 91.70 169.06 Z" fill="none" group-id="1" node-id="552" stroke="none" target-height="0.5299988" target-width="0" target-x="91.7" target-y="168.53"></path><path d="M 91.85 172.00 C 91.85 172.17 91.85 172.33 91.85 172.49 C 91.85 172.33 91.85 172.17 91.85 172.00 Z" fill="none" group-id="1" node-id="554" stroke="none" target-height="0.4900055" target-width="0" target-x="91.85" target-y="172"></path><path d="M 91.62 167.37 C 91.62 167.54 91.62 167.72 91.62 167.90 C 91.65 167.72 91.64 167.54 91.62 167.37 Z" fill="none" group-id="1" node-id="556" stroke="none" target-height="0.5299988" target-width="0.02999878" target-x="91.62" target-y="167.37"></path><path d="M 91.86 174.36 L 91.86 174.36 Z" fill="none" group-id="1" node-id="558" stroke="none" target-height="0" target-width="0" target-x="91.86" target-y="174.36"></path><path d="M 91.86 173.17 C 91.86 173.32 91.86 173.47 91.86 173.61 C 91.87 173.47 91.86 173.32 91.86 173.17 Z" fill="none" group-id="1" node-id="560" stroke="none" target-height="0.44000244" target-width="0.010002136" target-x="91.86" target-y="173.17"></path><path d="M 91.43 165.00 C 91.43 165.17 91.43 165.35 91.43 165.53 C 91.46 165.38 91.45 165.20 91.43 165.00 Z" fill="none" group-id="1" node-id="562" stroke="none" target-height="0.5299988" target-width="0.02999878" target-x="91.43" target-y="165"></path><path d="M 91.53 166.20 C 91.53 166.38 91.53 166.55 91.53 166.73 C 91.56 166.55 91.55 166.38 91.53 166.20 Z" fill="none" group-id="1" node-id="564" stroke="none" target-height="0.5299988" target-width="0.02999878" target-x="91.53" target-y="166.2"></path><path d="M 91.86 172.49 L 91.86 172.49 Z" fill="#262d32" fill-rule="nonzero" group-id="1" node-id="566" stroke="#1a1a1a" stroke-linecap="butt" stroke-width="1.55" target-height="0" target-width="0" target-x="91.86" target-y="172.49"></path><path d="M 87.77 143.39 L 87.98 144.30 Z" fill="#262d32" fill-rule="nonzero" group-id="1" node-id="568" stroke="#1a1a1a" stroke-linecap="butt" stroke-width="1.55" target-height="0.91000366" target-width="0.21000671" target-x="87.77" target-y="143.39"></path><path d="M 91.11 162.00 C 91.11 162.22 91.11 162.44 91.19 162.66 C 91.16 162.46 91.14 162.24 91.11 162.00 Z" fill="#262d32" fill-rule="nonzero" group-id="1" node-id="570" stroke="#1a1a1a" stroke-linecap="butt" stroke-width="1.55" target-height="0.66000366" target-width="0.08000183" target-x="91.11" target-y="162"></path><path d="M 87.51 142.29 C 87.58 142.60 87.66 142.92 87.73 143.23 C 87.66 142.92 87.58 142.60 87.51 142.29 Z" fill="#262d32" fill-rule="nonzero" group-id="1" node-id="572" stroke="#1a1a1a" stroke-linecap="butt" stroke-width="1.55" target-height="0.94000244" target-width="0.22000122" target-x="87.51" target-y="142.29"></path><path d="M 91.58 166.73 C 91.58 166.94 91.58 167.16 91.58 167.37 C 91.61 167.16 91.59 166.94 91.58 166.73 Z" fill="#262d32" fill-rule="nonzero" group-id="1" node-id="574" stroke="#1a1a1a" stroke-linecap="butt" stroke-width="1.55" target-height="0.6399994" target-width="0.02999878" target-x="91.58" target-y="166.73"></path><path d="M 88.27 145.63 C 88.34 145.92 88.40 146.21 88.46 146.50 C 88.40 146.21 88.34 145.92 88.27 145.63 Z" fill="#262d32" fill-rule="nonzero" group-id="1" node-id="576" stroke="#1a1a1a" stroke-linecap="butt" stroke-width="1.55" target-height="0.8699951" target-width="0.19000244" target-x="88.27" target-y="145.63"></path><path d="M 91.25 163.20 L 91.31 163.85 Z" fill="#262d32" fill-rule="nonzero" group-id="1" node-id="578" stroke="#1a1a1a" stroke-linecap="butt" stroke-width="1.55" target-height="0.65000916" target-width="0.05999756" target-x="91.25" target-y="163.2"></path><path d="M 88.00 144.51 C 88.07 144.80 88.13 145.10 88.20 145.39 C 88.15 145.10 88.09 144.80 88.00 144.51 Z" fill="#262d32" fill-rule="nonzero" group-id="1" node-id="580" stroke="#1a1a1a" stroke-linecap="butt" stroke-width="1.55" target-height="0.8800049" target-width="0.19999695" target-x="88" target-y="144.51"></path><path d="M 91.87 173.61 C 91.87 173.87 91.87 174.11 91.87 174.36 C 91.86 174.11 91.87 173.87 91.87 173.61 Z" fill="#262d32" fill-rule="nonzero" group-id="1" node-id="582" stroke="#1a1a1a" stroke-linecap="butt" stroke-width="1.55" target-height="0.75" target-width="0.010002136" target-x="91.86" target-y="173.61"></path><path d="M 81.44 121.00 L 81.44 121.00 Z" fill="#262d32" fill-rule="nonzero" group-id="1" node-id="584" stroke="#1a1a1a" stroke-linecap="butt" stroke-width="1.55" target-height="0" target-width="0" target-x="81.44" target-y="121"></path><path d="M 81.45 121.00 C 81.45 121.00 81.45 121.11 81.52 121.20 C 81.49 121.15 81.46 121.08 81.45 121.00 Z" fill="#262d32" fill-rule="nonzero" group-id="1" node-id="586" stroke="#1a1a1a" stroke-linecap="butt" stroke-width="1.55" target-height="0.19999695" target-width="0.069999695" target-x="81.45" target-y="121"></path><path d="M 91.37 164.38 L 91.43 165.03 Z" fill="#262d32" fill-rule="nonzero" group-id="1" node-id="588" stroke="#1a1a1a" stroke-linecap="butt" stroke-width="1.55" target-height="0.6499939" target-width="0.05999756" target-x="91.37" target-y="164.38"></path><path d="M 87.00 140.13 L 87.24 141.13 Z" fill="#262d32" fill-rule="nonzero" group-id="1" node-id="590" stroke="#1a1a1a" stroke-linecap="butt" stroke-width="1.55" target-height="1" target-width="0.23999786" target-x="87" target-y="140.13"></path><path d="M 81.53 121.27 C 81.80 122.05 82.59 124.41 83.63 127.85 C 82.59 124.41 81.80 122.05 81.53 121.27 Z" fill="#262d32" fill-rule="nonzero" group-id="1" node-id="592" stroke="#1a1a1a" stroke-linecap="butt" stroke-width="1.55" target-height="6.580002" target-width="2.0999985" target-x="81.53" target-y="121.27"></path><path d="M 87.25 141.20 C 87.33 141.52 87.40 141.84 87.48 142.20 C 87.40 141.84 87.33 141.52 87.25 141.20 Z" fill="#262d32" fill-rule="nonzero" group-id="1" node-id="594" stroke="#1a1a1a" stroke-linecap="butt" stroke-width="1.55" target-height="1" target-width="0.23000336" target-x="87.25" target-y="141.2"></path><path d="M 91.86 174.73 C 91.86 175.10 91.86 175.47 91.86 175.83 C 91.85 175.47 91.86 175.10 91.86 174.73 Z" fill="#262d32" fill-rule="nonzero" group-id="1" node-id="596" stroke="#1a1a1a" stroke-linecap="butt" stroke-width="1.55" target-height="1.1000061" target-width="0.010002136" target-x="91.85" target-y="174.73"></path><path d="M 90.81 159.65 L 90.90 160.32 Z" fill="#262d32" fill-rule="nonzero" group-id="1" node-id="598" stroke="#1a1a1a" stroke-linecap="butt" stroke-width="1.55" target-height="0.6700134" target-width="0.09000397" target-x="90.81" target-y="159.65"></path><path d="M 90.08 154.90 L 90.20 155.63 Z" fill="#262d32" fill-rule="nonzero" group-id="1" node-id="600" stroke="#1a1a1a" stroke-linecap="butt" stroke-width="1.55" target-height="0.730011" target-width="0.11999512" target-x="90.08" target-y="154.9"></path><path d="M 89.88 153.72 C 89.88 153.97 89.97 154.22 90.01 154.47 C 90.00 154.22 89.92 154.00 89.88 153.72 Z" fill="#262d32" fill-rule="nonzero" group-id="1" node-id="602" stroke="#1a1a1a" stroke-linecap="butt" stroke-width="1.55" target-height="0.75" target-width="0.13000488" target-x="89.88" target-y="153.72"></path><path d="M 89.67 152.55 C 89.67 152.80 89.76 153.05 89.81 153.31 C 89.76 153.05 89.72 152.80 89.67 152.55 Z" fill="#262d32" fill-rule="nonzero" group-id="1" node-id="604" stroke="#1a1a1a" stroke-linecap="butt" stroke-width="1.55" target-height="0.7599945" target-width="0.13999939" target-x="89.67" target-y="152.55"></path><path d="M 91.73 169.06 L 91.73 169.70 Z" fill="#262d32" fill-rule="nonzero" group-id="1" node-id="606" stroke="#1a1a1a" stroke-linecap="butt" stroke-width="1.55" target-height="0.6399994" target-width="0" target-x="91.73" target-y="169.06"></path><path d="M 90.46 157.27 C 90.46 157.50 90.53 157.74 90.57 157.97 C 90.53 157.74 90.50 157.50 90.46 157.27 Z" fill="#262d32" fill-rule="nonzero" group-id="1" node-id="608" stroke="#1a1a1a" stroke-linecap="butt" stroke-width="1.55" target-height="0.69999695" target-width="0.11000061" target-x="90.46" target-y="157.27"></path><path d="M 91.66 167.90 C 91.66 168.11 91.66 168.32 91.66 168.53 C 91.69 168.32 91.68 168.11 91.66 167.90 Z" fill="#262d32" fill-rule="nonzero" group-id="1" node-id="610" stroke="#1a1a1a" stroke-linecap="butt" stroke-width="1.55" target-height="0.6300049" target-width="0.02999878" target-x="91.66" target-y="167.9"></path><path d="M 90.64 158.46 C 90.64 158.69 90.71 158.92 90.74 159.15 C 90.71 158.92 90.67 158.69 90.64 158.46 Z" fill="#262d32" fill-rule="nonzero" group-id="1" node-id="612" stroke="#1a1a1a" stroke-linecap="butt" stroke-width="1.55" target-height="0.6899872" target-width="0.099998474" target-x="90.64" target-y="158.46"></path><path d="M 88.52 146.76 L 88.70 147.61 Z" fill="#262d32" fill-rule="nonzero" group-id="1" node-id="614" stroke="#1a1a1a" stroke-linecap="butt" stroke-width="1.55" target-height="0.8500061" target-width="0.1800003" target-x="88.52" target-y="146.76"></path><path d="M 90.28 156.09 C 90.28 156.32 90.35 156.56 90.39 156.80 C 90.35 156.56 90.32 156.32 90.28 156.09 Z" fill="#262d32" fill-rule="nonzero" group-id="1" node-id="616" stroke="#1a1a1a" stroke-linecap="butt" stroke-width="1.55" target-height="0.7100067" target-width="0.11000061" target-x="90.28" target-y="156.09"></path><path d="M 91.48 165.56 C 91.48 165.77 91.48 165.98 91.48 166.20 C 91.52 166.00 91.50 165.77 91.48 165.56 Z" fill="#262d32" fill-rule="nonzero" group-id="1" node-id="618" stroke="#1a1a1a" stroke-linecap="butt" stroke-width="1.55" target-height="0.6399994" target-width="0.039993286" target-x="91.48" target-y="165.56"></path><path d="M 91.83 171.35 C 91.83 171.57 91.83 171.79 91.83 172.00 C 91.84 171.79 91.84 171.57 91.83 171.35 Z" fill="#262d32" fill-rule="nonzero" group-id="1" node-id="620" stroke="#1a1a1a" stroke-linecap="butt" stroke-width="1.55" target-height="0.6499939" target-width="0.009994507" target-x="91.83" target-y="171.35"></path><path d="M 89.00 149.06 C 89.00 149.32 89.10 149.59 89.16 149.86 C 89.10 149.59 89.05 149.32 89.00 149.06 Z" fill="#262d32" fill-rule="nonzero" group-id="1" node-id="622" stroke="#1a1a1a" stroke-linecap="butt" stroke-width="1.55" target-height="0.80000305" target-width="0.16000366" target-x="89" target-y="149.06"></path><path d="M 88.76 147.90 C 88.82 148.18 88.87 148.45 88.93 148.73 C 88.87 148.45 88.82 148.18 88.76 147.90 Z" fill="#262d32" fill-rule="nonzero" group-id="1" node-id="624" stroke="#1a1a1a" stroke-linecap="butt" stroke-width="1.55" target-height="0.83000183" target-width="0.16999817" target-x="88.76" target-y="147.9"></path><path d="M 91.00 160.83 L 91.09 161.50 Z" fill="#262d32" fill-rule="nonzero" group-id="1" node-id="626" stroke="#1a1a1a" stroke-linecap="butt" stroke-width="1.55" target-height="0.66999817" target-width="0.08999634" target-x="91" target-y="160.83"></path><path d="M 91.79 170.21 C 91.79 170.42 91.79 170.63 91.79 170.85 C 91.81 170.63 91.80 170.42 91.79 170.21 Z" fill="#262d32" fill-rule="nonzero" group-id="1" node-id="628" stroke="#1a1a1a" stroke-linecap="butt" stroke-width="1.55" target-height="0.6399994" target-width="0.019996643" target-x="91.79" target-y="170.21"></path><path d="M 89.23 150.21 L 89.38 151.01 Z" fill="#262d32" fill-rule="nonzero" group-id="1" node-id="630" stroke="#1a1a1a" stroke-linecap="butt" stroke-width="1.55" target-height="0.7999878" target-width="0.1499939" target-x="89.23" target-y="150.21"></path><path d="M 89.45 151.38 L 89.60 152.15 Z" fill="#262d32" fill-rule="nonzero" group-id="1" node-id="632" stroke="#1a1a1a" stroke-linecap="butt" stroke-width="1.55" target-height="0.769989" target-width="0.15000153" target-x="89.45" target-y="151.38"></path><path d="M 84.49 152.68 L 95.11 151.08 L 95.28 151.21 L 97.43 165.51 L 97.27 166.18 L 96.68 166.53 L 87.55 167.90 L 86.88 167.74 L 86.52 167.15 L 84.38 152.85 L 84.50 152.68 Z" fill="#ffcc7d" fill-rule="nonzero" group-id="1,15" node-id="636" stroke="#1a1a1a" stroke-linecap="butt" stroke-width="1.04" target-height="16.820038" target-width="13.055016" target-x="84.37723" target-y="151.08342"></path><path d="M 86.34 151.64 L 93.66 150.53 L 93.78 150.63 L 95.43 161.52 L 95.32 161.98 L 94.91 162.22 L 88.62 163.18 L 88.15 163.06 L 87.91 162.66 L 86.26 151.77 L 86.35 151.64 Z" fill="#dd9534" fill-rule="nonzero" group-id="1,16" node-id="641" stroke="#1a1a1a" stroke-linecap="butt" stroke-width="1.0413511" target-height="12.643188" target-width="9.174011" target-x="86.258995" target-y="150.534"></path><path d="M 92.30 160.85 L 92.15 161.33 L 91.61 161.62 L 91.01 161.51 L 90.72 161.09 L 90.87 160.60 L 91.41 160.31 L 92.01 160.43 L 92.30 160.85 Z" fill="#1a1a1a" fill-rule="nonzero" group-id="1,17" node-id="646" stroke="none" target-height="1.3067627" target-width="1.5839996" target-x="90.715904" target-y="160.31332"></path><path d="M 54.90 122.00 C 54.90 122.00 68.96 127.27 81.77 122.00" fill="none" group-id="1" node-id="649" stroke="#1a1a1a" stroke-linecap="butt" stroke-width="0.78" target-height="5.2699966" target-width="26.869995" target-x="54.9" target-y="122"></path><path d="M 67.10 124.32 L 67.45 148.07" fill="none" group-id="1" node-id="651" stroke="#1a1a1a" stroke-linecap="butt" stroke-width="0.78" target-height="23.750008" target-width="0.34999847" target-x="67.1" target-y="124.32"></path><path d="M 70.16 124.31 L 70.75 148.07" fill="none" group-id="1" node-id="653" stroke="#1a1a1a" stroke-linecap="butt" stroke-width="0.78" target-height="23.76001" target-width="0.58999634" target-x="70.16" target-y="124.31"></path><path d="M 74.18 197.44 C 74.18 197.44 89.27 201.66 98.98 194.85" fill="none" group-id="1" node-id="655" stroke="#1a1a1a" stroke-linecap="butt" stroke-width="0.78" target-height="6.8099976" target-width="24.800003" target-x="74.18" target-y="194.85"></path><path d="M 91.14 17.81 L 90.25 13.81 C 89.50 13.21 88.74 12.62 87.95 12.04 L 89.40 17.04 Z" fill="#1a1a1a" fill-rule="nonzero" group-id="1" node-id="657" stroke="none" target-height="5.7699995" target-width="3.1900024" target-x="87.95" target-y="12.04"></path></g></svg>